<?xml version="1.0" encoding="UTF-8"?>
<svg id="Layer_1" xmlns="http://www.w3.org/2000/svg" version="1.1" viewBox="0 0 1000 1000">
  <!-- Generator: Adobe Illustrator 30.2.1, SVG Export Plug-In . SVG Version: 2.1.1 Build 1)  -->
  <defs>
    <style>
      .st0 {
        fill: #f15a24;
      }

      .st1 {
        fill: #fff;
      }

      .st2 {
        fill: #fbb03b;
      }
    </style>
  </defs>
  <path class="st0" d="M866.4,970.7c-4.3,5.2-12.3,8.2-21,8.2H156.2c-8.8,0-15.9-3-22.9-7.6l277.4-262-18.7-14.6L117.2,954.5c-4.9-8.2-7.2-17-7.2-27.2v-432.6c0-14.9,5.4-29.3,17.1-38.8l272.2-222.1c8-6.5,12.2-16.5,12.2-26.5v-113.5c-19.8-5-30.7-22.5-28.3-40.8,2.3-18.4,18.1-32.3,37.6-31.8l163.3.4c18.3,0,31.7,17.1,32.9,32.7,1.5,18.6-9.2,34.7-28.6,39.5v116.7c.1,9.3,6.1,18.4,12.9,23.9l104.3,84.6,163.2,133.1c13.6,11.1,21.2,24.3,21.2,42.7v434.1c0,9.6-2,17.8-6.7,25.9l-274.8-259.8c-6.6,4.1-13,9-19.2,14.6l277.1,261.1ZM509,740l191.5-146.8,155.9-119.9-180.1-147-85.9-69.7c-13.3-10.8-25.5-24.9-25.5-43l-.3-130c0-22.4,28.8-4.8,28.2-26.2-.2-7-5.5-11.9-13.4-11.9h-158.6c-8.3,0-13.8,5.4-13.4,13.3,1,18.9,28.2,3.6,28.2,23.3l-.2,130.1c0,15-8,30.1-19.5,39.5l-105.1,85.4-166.7,136.1,83.8,65,262.9,201.5c5.6,5.5,11.9,6.4,18.2.4Z"/>
  <path class="st1" d="M509,740c-6.3,6-12.6,5.1-18.2-.4l-262.9-201.5-83.8-65,166.7-136.1,105.1-85.4c11.5-9.4,19.5-24.5,19.5-39.5l.2-130.1c0-19.7-27.2-4.3-28.2-23.3-.4-7.9,5.1-13.2,13.4-13.2h158.6c7.9,0,13.2,4.8,13.4,11.8.6,21.4-28.2,3.8-28.2,26.2l.3,130c0,18.1,12.3,32.3,25.5,43l85.9,69.7,180.1,147-155.9,119.9-191.5,146.8Z"/>
  <g>
    <path class="st2" d="M779.7,502c-10.3,10.5-21.5,17.4-33.3,26.4l-246.2,188.6-317.8-243.8c7.2-8.3,16.1-14.5,25.3-21.2,74.5-26.2,167.1-19.6,240.3,6.9l75.7,27.3c82.8,29.9,170.2,45.3,256,15.9Z"/>
    <path class="st2" d="M807.2,463.9c-19,12.1-39.6,17.3-60.8,23.2-36.8,9-73.5,8.7-111.6,4-44.3-7.4-86.3-19.2-129.6-37.3,87.4-24.6,190.3-39.6,275.5-5.9,9.2,4.6,18.3,7.2,26.4,16Z"/>
  </g>
</svg>